<?xml version="1.0" encoding="utf-8"?>
<!-- Generator: Adobe Illustrator 27.0.0, SVG Export Plug-In . SVG Version: 6.00 Build 0)  -->
<svg version="1.1" id="Calque_1" xmlns="http://www.w3.org/2000/svg" xmlns:xlink="http://www.w3.org/1999/xlink" x="0px" y="0px"
	 viewBox="0 0 200 75" style="enable-background:new 0 0 200 75;" xml:space="preserve">
<style type="text/css">
	.st0{fill:#E5B586;}
</style>
<g>
	<path class="st0" d="M34.2,15.1c-1.8,0.8-2.5,2.8-1.4,4.1C34.4,18.3,35,16.6,34.2,15.1z"/>
	<path class="st0" d="M31.6,34.8c-1.4,0.9-1.8,2.7-0.8,3.7C32.1,37.5,32.4,36,31.6,34.8z"/>
	<path class="st0" d="M31.2,45.3c1-1.3,1-2.8-0.1-3.8C30,42.7,30,44.6,31.2,45.3z"/>
	<path class="st0" d="M31.4,52c1-1.3,1-2.8-0.1-3.8C30.1,49.5,30.2,51.3,31.4,52z"/>
	<path class="st0" d="M33.3,33.1c1.5-0.6,2.3-1.9,1.9-3.2C33.6,30.2,32.6,31.9,33.3,33.1z"/>
	<path class="st0" d="M36.9,28.4c1.5-0.6,2.3-1.9,1.9-3.2C37.2,25.5,36.3,27.1,36.9,28.4z"/>
	<path class="st0" d="M41.7,19.8c-1.6,0.5-2.4,2.2-1.7,3.4C41.5,22.5,42.2,21.2,41.7,19.8z"/>
	<path class="st0" d="M22,19.5c0.6-1.5,0.1-3-1.2-3.6C20.1,17.5,20.6,19.2,22,19.5z"/>
	<path class="st0" d="M15.6,25c0.6-1.5,0.1-3-1.2-3.6C13.7,22.9,14.2,24.6,15.6,25z"/>
	<path class="st0" d="M23.5,24c0.6-1.5,0.1-3-1.2-3.6C21.5,22,22.1,23.7,23.5,24z"/>
	<path class="st0" d="M12.5,34.3c-0.3-1.6-1.5-2.5-2.9-2.4C9.7,33.5,11.2,34.7,12.5,34.3z"/>
	<path class="st0" d="M16.5,37c-0.4-1.5-1.7-2.4-3.1-2.1C13.7,36.6,15.2,37.6,16.5,37z"/>
	<path class="st0" d="M13.5,41.5c-0.9-1.3-2.4-1.7-3.6-0.9C10.7,42,12.5,42.5,13.5,41.5z"/>
	<path class="st0" d="M12.6,46.4c-1.4-0.8-2.9-0.4-3.7,0.8C10.3,48.1,12.1,47.7,12.6,46.4z"/>
	<path class="st0" d="M18.8,42.5c-1-1.3-2.4-1.7-3.6-0.9C15.9,43.1,17.8,43.5,18.8,42.5z"/>
	<path class="st0" d="M14,49.6c1.3,1.1,3.2,0.8,3.7-0.5C16.4,48.3,14.9,48.5,14,49.6z"/>
	<path class="st0" d="M18.4,48.9c1.3,1,3.2,0.7,3.7-0.7C20.6,47.4,19.1,47.7,18.4,48.9z"/>
	<path class="st0" d="M18.1,29.6c0.6-1.5,0.1-2.9-1.1-3.6C16.2,27.5,16.7,29.3,18.1,29.6z"/>
	<path class="st0" d="M19.2,30.5c-0.6,1.6,0.2,3.3,1.6,3.4C21.2,32.3,20.5,30.9,19.2,30.5z"/>
	<path class="st0" d="M23.9,38.4c0.5-1.5,0-3-1.3-3.5C21.9,36.4,22.5,38.2,23.9,38.4z"/>
	<path class="st0" d="M25.1,40c-0.9,1.4-0.4,3.2,1,3.6C26.8,42.2,26.4,40.7,25.1,40z"/>
	<path class="st0" d="M43.8,32.6c1.6,0.1,2.8-0.8,3-2.2C45.2,30.1,43.6,31.2,43.8,32.6z"/>
	<path class="st0" d="M41.6,42.8c1.6,0,2.8-1,2.8-2.5C42.7,40.2,41.3,41.4,41.6,42.8z"/>
	<path class="st0" d="M38.7,36.3c1.6,0,2.8-1.1,2.8-2.5C39.8,33.7,38.4,34.9,38.7,36.3z"/>
	<path class="st0" d="M45.1,39.9c1.6-0.2,2.6-1.3,2.6-2.7C46,37.1,44.7,38.5,45.1,39.9z"/>
	<path class="st0" d="M44.3,47c1.5,0.6,3,0.1,3.6-1.2C46.4,45,44.6,45.6,44.3,47L44.3,47z"/>
	<path class="st0" d="M39.5,47.7c1.5,0.6,3,0.1,3.6-1.2C41.5,45.7,39.8,46.3,39.5,47.7z"/>
	<path class="st0" d="M36.8,41.9c1.4-0.8,1.9-2.3,1.3-3.5C36.5,39,35.9,40.8,36.8,41.9z"/>
	<path class="st0" d="M26.4,46.1c-1.2,1.2-1.1,3.1,0.2,3.7C27.5,48.5,27.5,47,26.4,46.1z"/>
	<path class="st0" d="M30.4,25.1c1.6-0.9,2.3-2.6,1.6-4.1C30.2,21.8,29.4,23.8,30.4,25.1z"/>
	<path class="st0" d="M26.6,30.1c1.8-0.5,2.8-1.9,2.5-3.6C27.2,26.8,25.9,28.6,26.6,30.1z"/>
	<path class="st0" d="M22.8,40.6c-1.9-3.4-4.6-6.1-7.2-8.9c-2.1-2.3-3.5-4.9-4-7.8c-0.5,0.9-1,1.9-1.3,2.9c0.5,1.7,1.4,3.2,2.6,4.6
		c1.5,1.8,3.2,3.5,4.8,5.3c0.3,0.3,0.5,0.6,0.9,1.2c-2.1-0.2-3.9-0.3-5.7-0.6c-1.3-0.2-2.6-0.5-3.7-1.1v2.1c1.2,0.6,2.4,0.9,3.8,1.1
		c1.6,0.2,3.3,0.1,4.9,0.4c2.7,0.6,4,2.5,4.6,5.1c0,0,0,0,0,0.1c-0.1-0.4-2.3-0.7-2.6-0.7c-1.1-0.1-2.1-0.2-3.2-0.3
		c-2.6-0.1-5.1-0.5-7.4-1.5v1.9c1.6,0.6,3.3,1,5.1,1.2c0.2,0,0.4,0,0.6,0.1l-0.1,0c0,0-1.6,0.7-4.9,4.4h2.1c0,0,4.2-4.3,6.6-4.3
		c0.1,0,0.2,0,0.3,0c1.2,0.1,2.8,0.3,3.5,1.3c0.7,0.9,0.5,2.4,0.5,3.4c0,0,0,0.2,0,0.4c0.7,0.2,1.3,0.4,1.9,0.7c0-1.3,0-2.6-0.1-3.8
		C24.5,45.3,24.1,42.9,22.8,40.6L22.8,40.6z"/>
	<path class="st0" d="M50.4,26.6c-0.2-0.7-0.4-1.3-0.7-2c-0.8-1.8-1.8-3.6-3-5.1c-0.4-0.6-0.9-1.1-1.4-1.7c-1.6-1.7-3.5-3.2-5.6-4.4
		c-0.5-0.3-1.1-0.6-1.6-0.8c-2.6-1.2-5.4-1.9-8.4-2c-0.3,0-0.6,0-0.9,0c-0.3,0-0.7,0-1,0c-2.9,0.1-5.7,0.8-8.3,2
		c-0.7,0.3-1.3,0.6-2,1c-2.9,1.6-5.4,3.9-7.3,6.6c-0.3,0.4-0.5,0.8-0.8,1.2c-2.1,3.5-3.4,7.5-3.4,11.9v27.5h0.1V62h45.2V33.3
		C51.4,30.9,51,28.7,50.4,26.6L50.4,26.6z M34.2,60.1c0.4-1.4,1.7-2.4,3.2-2.4h10.9v-1.9H37.4c-2.6,0-4.7,1.9-5.2,4.3h-2.5
		c0.6-3.6,3.8-6.3,7.5-6.3h11v-1.9h-11c-0.9,0-1.8,0.1-2.6,0.4c-0.7,0.2-1.3,0.5-1.9,0.8c-1.2,0.6-2.3,1.5-3.1,2.6
		c-0.4,0.5-0.7,1-1,1.5c-0.3-0.5-0.6-1-1-1.5c-0.8-1.1-1.9-2-3.1-2.6c-0.6-0.3-1.3-0.6-1.9-0.8c-0.8-0.2-1.7-0.4-2.6-0.4h-11v1.9h11
		c3.8,0,6.9,2.7,7.5,6.3h-2.5c-0.5-2.4-2.6-4.3-5.2-4.3H9.1v1.9h10.9c1.5,0,2.8,1,3.2,2.4H8V33.3c0-2.9,0.6-5.8,1.8-8.4
		c0.5-1,1-2,1.6-3c0.8-1.2,1.7-2.3,2.7-3.3c1.1-1.1,2.2-2,3.4-2.8c0.6-0.4,1.3-0.8,1.9-1.1c2.6-1.3,5.6-2.1,8.6-2.2
		c0.3,0,0.5,0,0.8,0c0.4,0,0.8,0,1.2,0c2.7,0.2,5.4,0.8,7.8,2c0.6,0.3,1.2,0.6,1.8,1c1.4,0.8,2.6,1.9,3.8,3c0.4,0.4,0.8,0.8,1.2,1.3
		c0.5,0.6,0.9,1.1,1.3,1.7c0.9,1.3,1.6,2.7,2.2,4.1c0.3,0.6,0.5,1.3,0.7,2c0.5,1.6,0.7,3.3,0.7,5.1c0,0.1,0,0.3,0,0.4v26.8H34.2
		L34.2,60.1z"/>
	<path class="st0" d="M16.3,39.6c-0.1,0-0.2,0-0.4,0C16.1,39.6,16.2,39.6,16.3,39.6z"/>
	<path class="st0" d="M28.3,36.2c0.3-3.1,3.6-5.6,5.6-7.7c1.3-1.4,2.3-2.9,3.2-4.5c1.2-2.2,2-4.6,2.3-7.1c-0.6-0.4-1.2-0.7-1.8-1.1
		c-0.5,3.3-1.7,6.5-3.6,9.3c-0.9,1.4-2.1,2.6-3.2,3.9c-1.4,1.5-2.7,3.1-4,4.6c-0.8-1.1-1.6-2.2-2.3-3.4c-0.1-0.2,0-0.8,0.2-1.1
		c0.8-1.4,1.7-2.8,2.6-4.2c1.9-3.1,3-7.3,2.8-11.2c-0.4,0-0.9,0-1.3,0c-0.2,0-0.5,0-0.7,0c0.1,2.4-0.5,4.8-1.4,7.1
		c-0.9-1.3-2-6.1-2-6.1l-2,0.5c1.2,4,2.6,7,3,7.9c-0.9,1.8-1.9,3.4-2.9,5c-0.3-0.4-0.6-0.7-0.9-1.1c-1.6-2.2-2.4-7-2.5-10.9
		c-0.7,0.4-1.3,0.7-1.9,1.2c0.1,3.2,0.5,6.6,1.5,8.3c1.1,2,2.4,4,3.9,5.8c1.8,2.3,3.1,4.8,3.9,7.6c0.8,2.9,0.9,5.9,1,8.9h0v6
		c0.3,0.3,0.7,0.7,1,1.1c0.3-0.4,0.6-0.8,1-1.1v-5.7c0-2.8-0.1-5.6-0.7-8.3C28.7,38.6,28.2,37.5,28.3,36.2L28.3,36.2z"/>
	<path class="st0" d="M35.3,49.4c0.4-1,1-1.8,1.7-2.4c0.3-0.3,0.6-0.5,1-0.7c0.2-0.1,0.4-0.2,0.6-0.3c0,0,0,0,0,0
		c3.1-1.4,8.5-2,9.7-2.2v-1.8c-0.4,0.1-0.7,0.2-1.1,0.3l0,0l-0.1,0L39,44.1l0.4-0.7c0.1-0.1,0.2-0.3,0.2-0.4
		c0.1-0.2,0.3-0.4,0.4-0.5c0.2-0.3,0.4-0.6,0.5-0.9l0,0c0.6-1,1.1-2,1.7-2.9c0.9-1.3,2-2.2,3.5-2.7c0.8-0.3,1.7-0.6,2.6-0.9v-1.9
		c0,0,0-0.1,0-0.1c-2.6,0.8-5.2,1.6-6.9,3.7c-1,1.2-1.7,2.5-2.5,3.9c-0.4,0.6-0.8,1.2-1.2,1.8l-3,4.3V44c0-0.9,0.2-2.4,0.3-3.5
		c0-0.3,0.1-0.7,0.2-1.1c0-0.2,0.1-0.3,0.1-0.5c0.1-0.3,0.1-0.6,0.2-0.9c0.1-0.4,0.3-0.7,0.4-1.1c2-4.5,6.4-6.2,6.4-6.2
		c0.2-0.1,0.5-0.2,0.7-0.3c1.5-0.6,3-1.2,4.4-1.9c0.1,0,0.2-0.1,0.3-0.1c-0.2-0.7-0.4-1.3-0.6-1.9c-0.7,0.4-1.4,0.8-2,1.1
		c-1.7,0.8-2.9,1-2.9,1c1.3-1.9,2.3-3.7,3.1-5.5c-0.4-0.6-0.8-1.2-1.3-1.8c-0.3,0.8-0.7,1.5-1.1,2.2c-0.2,0.3-0.3,0.6-0.5,0.9
		c-0.6,1.1-1.3,2.3-2,3.3c-0.7,1.1-1.5,2.1-2.4,3c0,0,0,0,0,0c-1.7,2-3.6,5.2-3.7,5.4c-0.1,0.1-0.1,0.3-0.2,0.4
		c-0.3,0.6-0.6,1.2-0.7,1.9c-0.3,1.4-0.8,8.2-0.7,9.9v3.1l0,0.4c0.6-0.3,1.3-0.5,2-0.7c0,0,0,0,0,0c0.5-0.2,1.3-0.4,1.9-0.5
		c1.1-0.2,11.7-0.5,11.7-0.5v-1.4C48.3,48.6,39,48.3,35.3,49.4L35.3,49.4z"/>
</g>
<g>
	<path class="st0" d="M73.6,31.8c-4.4,0-7.4,4-7.4,9.6s3.3,9.6,7.7,9.6c2.7,0,5.4-1.3,7.2-3.6l1,0.9c-2.8,3.9-6.4,4.7-9,4.7
		c-6.3,0-10.6-4.9-10.6-11c0-5.8,3.6-11.7,10.8-11.7c2.1,0,4.1,0.6,6,1.8l-0.2-1.6h1.9v7.2h-1.4C79.2,33.9,76.9,31.8,73.6,31.8
		L73.6,31.8z"/>
	<path class="st0" d="M83.9,45.1c0-5,3.5-8.6,7.8-8.6c4.4,0,7.8,3.3,7.8,7.9c0,4.9-3.4,8.6-7.8,8.6S83.9,49.8,83.9,45.1z M96,45.3
		c0-3.5-1.2-7.3-4.2-7.3c-3,0-4.1,3.1-4.1,6.2c0,3.6,1.4,7.2,4.4,7.2C95,51.4,96,48.3,96,45.3L96,45.3z"/>
	<path class="st0" d="M103.5,46.2v-4.9c0-0.7,0-1.5,0.1-2.2c-0.7,0-1.6,0.1-2.2,0.1v-1.7h0.7c2.1,0,3-0.4,3.4-0.9h1.2v9.5
		c0,3.3,0.8,4.9,3,4.9c1.4,0,2.8-1,3.6-2.1v-7.4c0-0.9,0-1.7,0.2-2.5c-0.7,0-1.6,0.1-2.2,0.1v-1.7h0.9c1.8,0,2.8-0.5,3.3-0.9h1.2
		l0,11.4c0,0.7,0,2-0.1,2.9c0.7,0,1.5-0.1,2.2-0.1v1.7h-4.9c-0.1-0.7-0.2-1.2-0.2-1.8c-1.3,1.2-3,2.3-4.9,2.3
		C105.1,53,103.5,51.2,103.5,46.2L103.5,46.2z"/>
	<path class="st0" d="M122.7,47.7v-6.5c0-0.7,0-1.4,0.1-2.2c-0.7,0-1.6,0.1-2.2,0.1v-1.7h1.1c1.7,0,2.6-0.4,3-0.9h1.1
		c0.1,0.6,0.1,1.7,0.2,3c1.2-1.7,3-3.1,5-3.1c1.3,0,2.4,0.7,2.4,2.2c0,0.7-0.5,1.7-1.8,1.7c-0.9,0-1.7-0.7-1.6-1.8
		c-1.5,0-3.1,1.6-3.9,3.3v6.8c0,0.7,0,1.5-0.1,2.3c0.7,0,1.4-0.1,2-0.1v1.7h-7v-1.3C122.7,51.2,122.7,49.8,122.7,47.7L122.7,47.7z"
		/>
	<path class="st0" d="M143.6,50.9c-1.4,1.4-3,2.1-4.8,2.1c-3,0-4.5-1.7-4.5-3.9c0-3.9,5.1-5.5,9.2-5.5v-1.8c0-2-0.4-3.8-2.7-3.8
		c-1.1,0-2.3,0.4-2.9,1.4c0.3,0.3,0.4,0.8,0.4,1.2c0,0.6-0.5,1.5-1.7,1.5c-1,0-1.5-0.8-1.5-1.7c0-2.2,2.7-3.9,6.3-3.9
		c3.6,0,5.3,1.8,5.3,5.8c0,2.3,0,4.1,0,6.4c0,0.6,0,1.4-0.1,2.3c0.7,0,1.5-0.1,2.1-0.1v1.7h-4.9C143.7,51.8,143.7,51.4,143.6,50.9
		L143.6,50.9z M137.8,48.7c0.1,1.4,1.1,2.1,2.2,2.1c1.4,0,2.5-0.6,3.6-1.6c0-0.4,0-0.9,0-1.5c0-0.4,0-1.5,0-2.7
		C140.8,45.2,137.7,46.2,137.8,48.7L137.8,48.7z"/>
	<path class="st0" d="M152.7,51.7l0.1,1h-1.7l-0.2-5.3h1.3c0.2,2.4,2.2,4.1,4.7,4.1c1.4,0,3-0.7,3-2.1c0-1.6-1.6-2.2-3.7-3
		c-2.5-1-5.4-1.9-5.4-5.2c0-2,1.3-4.7,5.5-4.7c1.1,0,2.6,0.3,3.8,1.2l0-1.1h1.7v5.5h-1.3c-0.2-2.1-1.6-4.1-4-4.1
		c-1.7,0-2.7,0.9-2.7,2.1c0,1.8,1.9,2.4,4.1,3.2c2.6,1,5,2.2,5,5.1c0,3.2-2.7,4.6-5.5,4.6C155.4,53,153.7,52.4,152.7,51.7
		L152.7,51.7z"/>
	<path class="st0" d="M167.3,51.7l0.1,1h-1.7l-0.2-5.3h1.3c0.2,2.4,2.2,4.1,4.7,4.1c1.4,0,3-0.7,3-2.1c0-1.6-1.6-2.2-3.7-3
		c-2.5-1-5.4-1.9-5.4-5.2c0-2,1.3-4.7,5.5-4.7c1.1,0,2.6,0.3,3.8,1.2l0-1.1h1.7v5.5h-1.3c-0.2-2.1-1.6-4.1-4-4.1
		c-1.7,0-2.7,0.9-2.7,2.1c0,1.8,1.9,2.4,4.1,3.2c2.6,1,5,2.2,5,5.1c0,3.2-2.7,4.6-5.5,4.6C170,53,168.3,52.4,167.3,51.7L167.3,51.7z
		"/>
	<path class="st0" d="M180.3,58.8c0-0.9,0.6-1.7,1.5-1.7c1,0,1.4,0.8,1.4,1.5c0,0.1,0,0.2,0,0.4c0.1,0.1,0.2,0.1,0.3,0
		c0.5,0,1-0.5,1.5-1.3c0.5-0.9,1.2-2.6,1.9-4.7l-4.9-10.2c-1.1-2.3-1.5-3.5-1.6-4.3l-1.5,0.1v-1.7h6.9v1.3h-0.1
		c-1.7,0.2-1.7,1.3-0.8,3.3l3.4,7.5c0.8-2.1,1.6-4.7,2.5-7.3c0.4-1.2,1-2.8,1.5-3.3l-2,0.1v-1.7h5.1v1.3c-1.5,0.5-2.1,1.9-2.9,3.9
		l-3.9,11c-1.8,5.2-3,7.9-5.8,7.9C181.4,60.9,180.3,60.2,180.3,58.8L180.3,58.8z"/>
</g>
</svg>
