<?xml version="1.0" encoding="UTF-8"?><svg id="Layer_1" xmlns="http://www.w3.org/2000/svg" viewBox="0 0 540 540"><defs><style>.cls-1{fill:#302b3f;}.cls-2{fill:#e5b586;}</style></defs><g><path class="cls-2" d="M104.88,217.38c-4.39,1.96-6.18,7.06-3.55,10.2,3.98-2.4,5.42-6.54,3.55-10.2Z"/><path class="cls-2" d="M98.4,266.39c-3.57,2.12-4.58,6.68-2.01,9.11,3.17-2.46,3.98-6.16,2.01-9.11Z"/><path class="cls-2" d="M97.52,292.44c2.48-3.14,2.39-6.93-.23-9.32-2.95,2.92-2.84,7.58,.23,9.32Z"/><path class="cls-2" d="M97.9,309.1c2.48-3.15,2.39-6.93-.23-9.32-2.95,2.92-2.84,7.58,.23,9.32Z"/><path class="cls-2" d="M102.6,262.1c3.77-1.37,5.68-4.63,4.71-8.05-4.05,.92-6.41,4.95-4.71,8.05Z"/><path class="cls-2" d="M111.69,250.36c3.77-1.37,5.68-4.63,4.71-8.05-4.05,.92-6.41,4.95-4.71,8.05Z"/><path class="cls-2" d="M123.5,229.1c-3.98,1.2-6.05,5.38-4.15,8.35,3.66-1.62,5.35-5.01,4.15-8.35Z"/><path class="cls-2" d="M74.65,228.38c1.45-3.73,.26-7.33-2.95-8.85-1.97,3.66-.5,8.09,2.95,8.85Z"/><path class="cls-2" d="M58.75,241.83c1.45-3.73,.26-7.33-2.95-8.85-1.97,3.66-.5,8.09,2.95,8.85Z"/><path class="cls-2" d="M78.25,239.56c1.45-3.73,.26-7.33-2.95-8.85-1.97,3.66-.5,8.09,2.95,8.85Z"/><path class="cls-2" d="M51.04,264.93c-.77-3.93-3.71-6.32-7.23-5.89,.29,4.14,3.91,7.09,7.23,5.89Z"/><path class="cls-2" d="M60.94,271.79c-1.11-3.85-4.25-5.97-7.72-5.24,.65,4.1,4.52,6.72,7.72,5.24Z"/><path class="cls-2" d="M53.44,282.83c-2.34-3.25-6-4.21-9.02-2.35,1.99,3.65,6.51,4.82,9.02,2.35Z"/><path class="cls-2" d="M51.2,295.09c-3.54-1.88-7.24-1.11-9.13,1.89,3.4,2.39,7.97,1.45,9.13-1.89Z"/><path class="cls-2" d="M66.52,285.41c-2.39-3.22-6.07-4.11-9.06-2.21,2.05,3.61,6.58,4.72,9.06,2.21Z"/><path class="cls-2" d="M54.7,303.06c3.2,2.64,7.83,2.05,9.25-1.18-3.38-2.15-7.14-1.67-9.25,1.18Z"/><path class="cls-2" d="M65.52,301.22c3.34,2.47,7.93,1.64,9.17-1.67-3.49-1.97-7.22-1.29-9.17,1.67Z"/><path class="cls-2" d="M64.95,253.39c1.5-3.72,.34-7.32-2.85-8.88-2.01,3.63-.59,8.08,2.85,8.88Z"/><path class="cls-2" d="M67.57,255.53c-1.5,3.87,.51,8.08,4.02,8.41,.98-3.89-.66-7.3-4.02-8.41Z"/><path class="cls-2" d="M79.39,275.27c1.29-3.8-.07-7.33-3.34-8.71-1.81,3.74-.14,8.1,3.34,8.71Z"/><path class="cls-2" d="M82.37,279.29c-2.18,3.54-.96,8.04,2.43,9,1.67-3.64,.68-7.3-2.43-9Z"/><path class="cls-2" d="M128.6,260.81c4,.28,7.07-1.93,7.57-5.44-4.08-.8-7.87,1.92-7.57,5.44Z"/><path class="cls-2" d="M123.19,286.13c4.01-.08,6.87-2.56,7.05-6.11-4.13-.42-7.66,2.63-7.05,6.11Z"/><path class="cls-2" d="M116.01,270.06c4.01-.11,6.85-2.61,7.01-6.16-4.13-.4-7.64,2.68-7.01,6.16Z"/><path class="cls-2" d="M132.02,278.89c3.98-.47,6.58-3.22,6.42-6.77-4.15-.02-7.37,3.36-6.42,6.77Z"/><path class="cls-2" d="M130.04,296.52c3.75,1.42,7.33,.19,8.82-3.03-3.67-1.94-8.09-.42-8.82,3.03Z"/><path class="cls-2" d="M117.93,298.42c3.75,1.42,7.33,.19,8.82-3.03-3.67-1.94-8.09-.42-8.82,3.03Z"/><path class="cls-2" d="M111.36,283.86c3.44-2.05,4.71-5.62,3.12-8.79-3.8,1.67-5.37,6.07-3.12,8.79Z"/><path class="cls-2" d="M85.42,294.29c-2.87,3-2.63,7.66,.5,9.31,2.39-3.21,2.19-7-.5-9.31Z"/><path class="cls-2" d="M95.4,242.28c4.06-2.25,5.65-6.34,3.92-10.07-4.46,1.8-6.43,6.83-3.92,10.07Z"/><path class="cls-2" d="M85.95,254.69c4.47-1.23,6.98-4.83,6.17-8.86-4.76,.7-7.85,5.13-6.17,8.86Z"/><path class="cls-2" d="M76.56,280.59c-4.66-8.5-11.45-15.16-17.92-22.11-5.32-5.71-8.8-12.1-10.01-19.46-1.28,2.33-2.37,4.76-3.25,7.27,1.36,4.13,3.47,8,6.42,11.55,3.75,4.53,7.88,8.76,11.82,13.15,.66,.73,1.19,1.58,2.19,2.91-5.23-.5-9.67-.82-14.08-1.37-3.26-.41-6.34-1.2-9.08-2.61v5.12c2.88,1.4,6.04,2.35,9.47,2.76,4.03,.48,8.15,.2,12.13,1.03,6.8,1.41,9.95,6.27,11.37,12.72,.01,.05,.02,.11,.03,.16-.23-1.09-5.74-1.65-6.58-1.77-2.66-.37-5.34-.5-8.01-.65-6.43-.35-12.59-1.18-18.4-3.72v4.68c4.02,1.57,8.24,2.53,12.59,3.03,.51,.06,1.02,.1,1.52,.14l-.24,.1s-3.98,1.7-12.12,10.98h5.11s10.41-10.79,16.47-10.6c.26,0,.48,0,.68,0,2.99,.24,6.88,.69,8.7,3.16,1.73,2.34,1.12,5.85,1.12,8.57,0,.09,0,.43,0,.91,1.65,.41,3.26,.98,4.8,1.7,.02-3.19,.03-6.36-.14-9.5-.35-6.25-1.42-12.36-4.58-18.13Z"/><path class="cls-2" d="M145.09,245.83c-.52-1.67-1.11-3.31-1.77-4.92-1.89-4.57-4.38-8.85-7.35-12.72-1.1-1.43-2.27-2.81-3.5-4.13-4.04-4.33-8.76-8.03-13.99-10.91-1.32-.73-2.68-1.41-4.06-2.04-6.43-2.9-13.5-4.63-20.94-4.91-.72-.03-1.45-.04-2.18-.04-.82,0-1.63,.02-2.44,.05-7.32,.31-14.27,2.02-20.6,4.86-1.66,.75-3.28,1.57-4.85,2.47-7.15,4.09-13.31,9.7-18.05,16.38-.68,.96-1.33,1.93-1.94,2.93-5.32,8.6-8.39,18.73-8.39,29.59v68.33h.27v3.05h112.29v-71.38c0-5.79-.87-11.37-2.5-16.62Zm-40.21,83.22c1.03-3.41,4.2-5.91,7.94-5.91h27.19v-4.79h-27.19c-6.4,0-11.74,4.62-12.86,10.7h-6.1c1.57-8.91,9.35-15.7,18.7-15.7h27.45v-4.79h-27.45c-2.21,0-4.35,.3-6.38,.87-1.68,.47-3.28,1.12-4.79,1.92-2.99,1.6-5.6,3.82-7.66,6.49-.92,1.2-1.74,2.49-2.42,3.85-.67-1.34-1.47-2.6-2.37-3.78-2.06-2.68-4.67-4.92-7.66-6.53-1.51-.81-3.11-1.46-4.79-1.94-2.05-.58-4.21-.89-6.44-.89h-27.45v4.79h27.45c9.35,0,17.13,6.79,18.7,15.7h-6.1c-1.13-6.08-6.47-10.7-12.87-10.7h-27.19v4.79h27.19c3.74,0,6.91,2.49,7.94,5.91H39.81v-66.59c0-7.29,1.5-14.35,4.37-20.83,1.13-2.55,2.47-5.01,4.01-7.35,1.93-2.93,4.17-5.69,6.71-8.23,2.61-2.61,5.45-4.91,8.48-6.87,1.54-1,3.12-1.91,4.75-2.73,6.55-3.31,13.79-5.19,21.3-5.45,.63-.02,1.26-.03,1.89-.03,1.01,0,2,.03,3,.09,6.81,.39,13.38,2.1,19.39,5.01,1.56,.75,3.08,1.59,4.56,2.5,3.39,2.09,6.57,4.6,9.46,7.49,1.02,1.02,2,2.08,2.92,3.17,1.18,1.39,2.27,2.83,3.28,4.31,2.19,3.22,4,6.66,5.4,10.26,.63,1.61,1.17,3.26,1.63,4.93,1.12,4.08,1.74,8.31,1.83,12.64,0,.37,.01,.73,.01,1.1v66.59h-37.91Z"/><path class="cls-2" d="M60.39,278.32c-.28-.03-.59-.05-.93-.04,.32,0,.63,.02,.93,.04Z"/><path class="cls-2" d="M90.25,269.72c.64-7.81,9-13.84,13.9-19.2,3.17-3.47,5.83-7.24,7.96-11.25,2.92-5.48,4.86-11.4,5.77-17.6-1.48-.97-3-1.85-4.57-2.64-1.17,8.24-4.22,16.19-8.82,23.12-2.36,3.55-5.22,6.47-8.07,9.57-3.41,3.71-6.64,7.6-10,11.36-1.93-2.79-3.95-5.52-5.72-8.4-.36-.59-.02-1.9,.4-2.63,2.04-3.52,4.2-6.97,6.35-10.42,4.76-7.63,7.45-18.05,7.06-27.73-1.06-.07-2.13-.1-3.21-.1-.57,0-1.14,0-1.71,.03,.16,6.05-1.18,12.02-3.36,17.7-2.33-3.33-4.91-15.26-4.91-15.26l-4.92,1.14c2.9,9.99,6.48,17.5,7.49,19.53-2.12,4.38-4.65,8.53-7.23,12.33-.86-1.04-1.55-1.79-2.14-2.62-3.89-5.45-5.89-17.27-6.32-27.02-1.63,.88-3.22,1.86-4.75,2.94,.29,7.99,1.32,16.47,3.67,20.74,2.78,5.03,6.06,9.84,9.57,14.4,4.35,5.65,7.71,12.04,9.7,18.9,2.1,7.22,2.35,14.66,2.49,22.12h.05v14.88c.85,.86,1.64,1.77,2.37,2.74,.74-.98,1.55-1.91,2.42-2.79v-14.14c0-6.91-.13-13.96-1.78-20.7-.73-2.99-1.95-5.83-1.69-8.98Z"/><path class="cls-2" d="M107.54,302.6c1.05-2.4,2.47-4.38,4.3-5.93,.74-.63,1.54-1.19,2.42-1.67,.46-.26,.95-.5,1.45-.72,.03-.02,.06-.03,.09-.04,7.7-3.44,21.12-5.06,24.15-5.4v-4.36c-.9,.27-1.82,.5-2.75,.69h0l-.16,.03-20.32,4.32,1.09-1.74c.17-.33,.38-.65,.61-.97,.31-.44,.65-.88,.91-1.31,.45-.74,.89-1.48,1.32-2.24h0c1.39-2.46,2.71-4.94,4.34-7.24,2.21-3.13,5.01-5.46,8.6-6.83,2.08-.79,4.22-1.47,6.36-2.12v-4.63c0-.09,0-.18,0-.27-6.38,1.87-12.83,3.88-17.22,9.16-2.46,2.97-4.26,6.33-6.17,9.65-.92,1.59-1.9,3.1-2.95,4.55l-7.52,10.77v-7.18c0-2.33,.44-6.08,.79-8.65,.03-.7,.16-1.63,.4-2.84,.09-.41,.18-.83,.28-1.3,.15-.8,.34-1.57,.58-2.29,.29-.94,.65-1.82,1.08-2.64,4.93-11.06,15.79-15.5,15.79-15.5,.56-.26,1.12-.51,1.71-.75,3.67-1.5,7.37-2.96,10.95-4.66,.24-.12,.48-.23,.72-.35-.42-1.64-.94-3.25-1.53-4.83-1.65,.99-3.39,1.95-4.9,2.62-4.31,1.92-7.18,2.4-7.18,2.4,3.19-4.62,5.74-9.29,7.77-13.71-.96-1.53-2.01-3.01-3.15-4.44-.82,1.88-1.7,3.74-2.66,5.57-.38,.73-.76,1.45-1.15,2.17-1.53,2.84-3.18,5.6-5.01,8.23-1.8,2.62-3.77,5.12-5.98,7.45,0,0,0,0,0,.02-4.26,5.09-8.83,12.92-9.18,13.52-.18,.35-.36,.71-.54,1.07-.75,1.53-1.41,3.08-1.8,4.69-.83,3.48-1.94,20.48-1.71,24.61v7.65l-.02,1.03c1.57-.73,3.2-1.3,4.87-1.71,0-.03,.02-.06,.03-.09,1.28-.4,3.14-.92,4.78-1.14,2.84-.38,28.96-1.14,28.96-1.14v-3.6s-23.09-.67-32.46,2.08Z"/></g><g><path class="cls-1" d="M202.66,258.88c-10.9,0-18.47,10.05-18.47,23.88s8.11,23.96,19.24,23.96c6.65,0,13.52-3.25,17.77-9.04l2.55,2.16c-6.95,9.66-16,11.67-22.33,11.67-15.61,0-26.35-12.06-26.35-27.44,0-14.38,8.89-29.14,26.89-29.14,5.25,0,10.28,1.47,14.91,4.41l-.39-3.86h4.79v17.93h-3.55c-1.16-9.27-6.65-14.45-15.07-14.53Z"/><path class="cls-1" d="M228.47,291.88c0-12.44,8.58-21.49,19.4-21.49s19.47,8.12,19.47,19.71c0,12.29-8.35,21.41-19.4,21.41s-19.47-7.96-19.47-19.63Zm29.83,.39c0-8.73-2.86-18.16-10.51-18.08-7.42,0-10.28,7.65-10.28,15.46,0,9.04,3.4,18.01,10.97,18.01,7.42-.08,9.81-7.73,9.81-15.38Z"/><path class="cls-1" d="M277.08,294.59v-12.13c0-1.7,0-3.63,.31-5.56-1.78,.08-3.86,.16-5.41,.23v-4.1h1.85c5.1,0,7.42-1.08,8.5-2.16h2.94v23.57c0,8.19,2.01,12.13,7.42,12.06,3.4,0,7.03-2.4,9.04-5.18v-18.32c0-2.24,.08-4.17,.39-6.11-1.78,.08-3.94,.16-5.56,.23v-4.1h2.24c4.56,0,7.03-1.16,8.11-2.16h2.94l-.08,28.44c0,1.62-.08,4.95-.31,7.11,1.78-.08,3.79-.23,5.41-.23v4.1h-12.29c-.23-1.62-.39-3.09-.54-4.41-3.17,3.01-7.57,5.64-12.21,5.64-8.73,0-12.75-4.48-12.75-16.93Z"/><path class="cls-1" d="M324.84,298.45v-16.08c0-1.7,0-3.55,.31-5.49-1.78,.08-3.86,.16-5.49,.23v-4.1h2.63c4.33,0,6.34-1.08,7.42-2.16h2.78c.15,1.47,.31,4.1,.39,7.34,2.86-4.25,7.42-7.81,12.36-7.81,3.17,0,5.87,1.62,5.87,5.41,0,1.62-1.24,4.33-4.4,4.25-2.16-.08-4.1-1.7-3.94-4.41-3.71-.08-7.73,3.86-9.81,8.12v16.93c0,1.85,0,3.79-.31,5.72,1.62-.08,3.48-.15,4.95-.23v4.1h-17.31v-3.25c4.56,0,4.56-3.48,4.56-8.58Z"/><path class="cls-1" d="M376.77,306.18c-3.48,3.48-7.5,5.33-11.9,5.33-7.42,0-11.21-4.17-11.21-9.58,0-9.58,12.6-13.76,22.87-13.76v-4.56c0-4.87-.93-9.43-6.8-9.43-2.7-.08-5.72,1-7.11,3.4,.77,.85,1,2.01,1,2.94,0,1.47-1.16,3.79-4.1,3.71-2.47,0-3.79-1.93-3.79-4.25,0-5.49,6.72-9.58,15.61-9.58s13.21,4.41,13.21,14.45c0,5.64-.08,10.2-.08,15.84,0,1.54-.08,3.55-.31,5.72,1.78-.08,3.71-.23,5.33-.23v4.1h-12.29c-.23-1.7-.31-2.71-.46-4.1Zm-14.6-5.26c.15,3.48,2.63,5.1,5.49,5.1,3.55,0,6.26-1.47,8.89-3.94-.08-1.08-.08-2.32-.08-3.63,0-.93,.08-3.71,.08-6.72-6.72,.31-14.53,2.86-14.37,9.2Z"/><path class="cls-1" d="M399.34,308.27l.23,2.55h-4.1l-.39-13.29h3.25c.39,5.87,5.49,10.12,11.59,10.12,3.48,0,7.5-1.7,7.5-5.33-.08-3.87-3.94-5.41-9.12-7.5-6.26-2.4-13.37-4.79-13.37-12.83,0-4.87,3.32-11.59,13.6-11.59,2.78,0,6.57,.77,9.51,3.09l-.08-2.71h4.1v13.6h-3.32c-.54-5.33-3.86-10.28-10.05-10.28-4.1,0-6.8,2.24-6.8,5.26,0,4.41,4.79,6.03,10.2,8.04,6.49,2.55,12.52,5.49,12.52,12.6,0,7.88-6.8,11.52-13.6,11.52-4.95,0-9.2-1.47-11.67-3.25Z"/><path class="cls-1" d="M435.66,308.27l.23,2.55h-4.1l-.39-13.29h3.25c.39,5.87,5.49,10.12,11.59,10.12,3.48,0,7.5-1.7,7.5-5.33-.08-3.87-3.94-5.41-9.12-7.5-6.26-2.4-13.37-4.79-13.37-12.83,0-4.87,3.32-11.59,13.6-11.59,2.78,0,6.57,.77,9.51,3.09l-.08-2.71h4.1v13.6h-3.32c-.54-5.33-3.86-10.28-10.05-10.28-4.1,0-6.8,2.24-6.8,5.26,0,4.41,4.79,6.03,10.2,8.04,6.49,2.55,12.52,5.49,12.52,12.6,0,7.88-6.8,11.52-13.6,11.52-4.95,0-9.2-1.47-11.67-3.25Z"/><path class="cls-1" d="M467.73,325.96c0-2.16,1.55-4.25,3.79-4.25,2.4-.08,3.48,1.93,3.48,3.71,0,.31,0,.62-.08,1,.23,.16,.46,.16,.7,.08,1.16-.08,2.55-1.24,3.71-3.32,1.24-2.32,2.86-6.41,4.64-11.67l-12.13-25.35c-2.78-5.8-3.63-8.73-3.94-10.59l-3.71,.15v-4.1h17.08v3.17h-.15c-4.17,.39-4.33,3.25-2.01,8.12l8.5,18.7c1.93-5.25,3.94-11.59,6.11-18.08,1-2.86,2.4-6.96,3.63-8.11l-5.02,.31v-4.1h12.67v3.17c-3.63,1.24-5.25,4.64-7.11,9.66l-9.66,27.21c-4.48,12.83-7.34,19.55-14.3,19.55-3.4,0-6.18-1.85-6.18-5.25Z"/></g></svg>